<svg width="16" height="16" viewBox="0 0 16 16" fill="none" xmlns="http://www.w3.org/2000/svg">
<g id="bi:hand-thumbs-up-fill">
<path id="Vector" d="M6.956 1.74498C7.021 0.809979 7.908 0.0869792 8.864 0.324979L9.125 0.390979C9.588 0.506979 9.999 0.846979 10.137 1.35598C10.357 2.17198 10.67 3.86698 10.199 5.86598C10.3463 5.84564 10.494 5.82863 10.642 5.81498C11.355 5.74998 12.311 5.74298 13.158 6.02498C13.676 6.19798 14.152 6.70598 14.358 7.29798C14.542 7.82998 14.518 8.45998 14.124 9.03098C14.182 9.14998 14.227 9.27298 14.262 9.39398C14.339 9.66398 14.375 9.96098 14.375 10.25C14.375 10.539 14.339 10.836 14.262 11.106C14.223 11.241 14.172 11.379 14.102 11.51C14.271 11.897 14.209 12.329 14.099 12.658C13.9864 12.9828 13.8216 13.2872 13.611 13.559C13.665 13.711 13.687 13.871 13.687 14.024C13.687 14.329 13.598 14.649 13.434 14.936C13.1 15.522 12.437 16 11.5 16H8C7.395 16 6.93 15.919 6.534 15.782C6.1935 15.6576 5.8681 15.4953 5.564 15.298L5.516 15.268C5.012 14.961 4.517 14.659 3.448 14.546C2.682 14.464 2 13.846 2 13V8.99998C2 8.14998 2.685 7.56798 3.357 7.38498C4.206 7.15298 4.931 6.59798 5.489 5.97498C6.049 5.34798 6.403 4.69498 6.528 4.33598C6.727 3.76098 6.884 2.79698 6.956 1.74598V1.74498Z" fill="white"/>
</g>
</svg>
