<svg width="251" height="23" viewBox="0 0 251 23" fill="none" xmlns="http://www.w3.org/2000/svg">
<path d="M36.69 19.4456C36.69 20.7179 35.6484 21.7497 34.3649 21.7497H2.32506C1.0416 21.7497 0 20.7166 0 19.4456V2.30471C0 1.03119 1.0416 0 2.32506 0H34.3649C35.649 0 36.69 1.03119 36.69 2.30471V19.4456Z" fill="white"/>
<path d="M15.8767 7.21973L14.6173 14.5457H16.6316L17.8916 7.21973H15.8767Z" fill="#07085B"/>
<path d="M12.9285 7.22801L10.9558 12.2241L10.7458 11.4701C10.3563 10.5613 9.25167 9.25558 7.9552 8.43321L9.75881 14.543L11.8901 14.5391L15.0624 7.22607L12.9285 7.22801Z" fill="#07085B"/>
<path d="M9.98111 7.87207C9.86342 7.37968 9.52468 7.23273 9.10271 7.21533H5.97986L5.95386 7.37646C9.10271 9.1443 10.2659 10.4533 10.9336 12.3223L9.98111 7.87207Z" fill="#07085B"/>
<path d="M21.9736 8.62378C22.6336 8.61346 23.1108 8.7559 23.4814 8.90413L23.6635 8.98856L23.9352 7.40117C23.5373 7.25294 22.9112 7.09375 22.131 7.09375C20.1408 7.09375 18.7383 8.08691 18.7279 9.51124C18.7142 10.5637 19.7272 11.1508 20.4919 11.5021C21.276 11.8617 21.54 12.0899 21.5361 12.4115C21.5296 12.9013 20.9099 13.1256 20.3306 13.1256C19.5244 13.1256 19.0966 13.0147 18.434 12.7434L18.1746 12.6248L17.8911 14.2637C18.3631 14.4693 19.2324 14.6453 20.1356 14.6549C22.2532 14.6549 23.629 13.6734 23.644 12.1511C23.6531 11.3184 23.1154 10.6836 21.9509 10.1622C21.2467 9.82253 20.815 9.59631 20.8195 9.25344C20.8195 8.94924 21.1863 8.62378 21.9736 8.62378Z" fill="#07085B"/>
<path d="M29.1061 7.22754H27.5495C27.0664 7.22754 26.7069 7.35773 26.4943 7.83594L23.5034 14.5496H25.6191C25.6191 14.5496 25.9637 13.6473 26.0417 13.4495C26.2726 13.4495 28.3284 13.452 28.6217 13.452C28.6815 13.7073 28.8668 14.5496 28.8668 14.5496H30.7354L29.1061 7.22754ZM26.6211 11.9491C26.7875 11.5282 27.4234 9.90154 27.4234 9.90154C27.4123 9.92152 27.5879 9.47811 27.6926 9.20226L27.8278 9.83387C27.8278 9.83387 28.2147 11.583 28.2953 11.9491H26.6211Z" fill="#07085B"/>
<path d="M79.5557 19.7269C79.5557 20.9985 78.5148 22.0309 77.2306 22.0309H45.1908C43.9067 22.0309 42.8657 20.9978 42.8657 19.7269V2.58531C42.8657 1.31244 43.9067 0.28125 45.1908 0.28125H77.2306C78.5148 0.28125 79.5557 1.31244 79.5557 2.58531V19.7269Z" fill="white"/>
<path d="M58.0887 5.5781L54.6909 13.6117H52.4744L50.8021 7.199C50.7007 6.80521 50.6129 6.6602 50.3041 6.49392C49.8002 6.22259 48.9673 5.96866 48.2358 5.81076L48.2846 5.57745H51.8535C52.3073 5.57745 52.7169 5.87714 52.8203 6.39596L53.7032 11.046L55.884 5.5781H58.0887ZM61.0855 5.5781L59.3514 13.6117H57.2546L58.9886 5.5781H61.0855ZM66.7739 10.9886C66.7824 8.86888 63.8162 8.75158 63.8357 7.80417C63.8429 7.51609 64.1199 7.20931 64.7252 7.13132C65.0249 7.09265 65.8546 7.06236 66.7934 7.49095L67.1608 5.78627C66.6562 5.60517 66.0067 5.43115 65.1992 5.43115C63.1264 5.43115 61.6674 6.52228 61.6563 8.08646C61.6427 9.24397 62.6979 9.88846 63.4911 10.2732C64.3091 10.667 64.5828 10.9197 64.5789 11.2715C64.573 11.8103 63.9261 12.0488 63.3247 12.0585C62.2694 12.0746 61.6583 11.7755 61.1706 11.5506L60.7909 13.3107C61.2812 13.535 62.1856 13.7271 63.1218 13.7374C65.326 13.738 66.7668 12.6585 66.7739 10.9886ZM72.2472 13.6117H74.186L72.4923 5.5781H70.7036C70.3005 5.5781 69.9611 5.81011 69.8109 6.16652L66.6647 13.6117H68.8669L69.3031 12.4117H71.9936L72.2472 13.6117ZM69.9065 10.7656L71.0112 7.7481L71.6458 10.7656H69.9065ZM63.7694 15.8236H62.9177V16.6099H63.8702V16.8464H62.6303V14.6654H63.8214V14.9007H62.9177V15.5896H63.7694V15.8236ZM64.3104 14.5488H64.5971V16.8458H64.3104V14.5488ZM65.3214 16.1143C65.3279 16.5003 65.573 16.6589 65.863 16.6589C66.0685 16.6589 66.1966 16.6228 66.3006 16.5777L66.3526 16.78C66.2512 16.8251 66.075 16.8806 65.824 16.8806C65.3377 16.8806 65.0477 16.5609 65.0477 16.0885C65.0477 15.6161 65.3286 15.2461 65.7882 15.2461C66.3071 15.2461 66.441 15.6921 66.441 15.9815C66.441 16.0395 66.4378 16.0807 66.4306 16.1136H65.3214V16.1143ZM66.164 15.9106C66.1673 15.7334 66.0886 15.4511 65.7661 15.4511C65.4723 15.4511 65.3481 15.7127 65.3253 15.9106H66.164ZM68.0041 16.791C67.9287 16.8271 67.7622 16.8825 67.5502 16.8825C67.0737 16.8825 66.7642 16.5615 66.7642 16.0833C66.7642 15.6012 67.0964 15.2487 67.6127 15.2487C67.7824 15.2487 67.9326 15.29 68.0106 15.3318L67.9456 15.5497C67.8766 15.513 67.7687 15.4749 67.6127 15.4749C67.2499 15.4749 67.0548 15.7437 67.0548 16.0672C67.0548 16.4301 67.2895 16.6524 67.6029 16.6524C67.7655 16.6524 67.874 16.6144 67.9553 16.5789L68.0041 16.791ZM68.8097 14.9046V15.2796H69.2206V15.4962H68.8097V16.3418C68.8097 16.5351 68.8649 16.646 69.0249 16.646C69.1029 16.646 69.149 16.6395 69.1913 16.6273L69.2043 16.8445C69.1491 16.8625 69.0606 16.8831 68.9494 16.8831C68.8155 16.8831 68.7076 16.838 68.6393 16.7626C68.5606 16.675 68.5288 16.5351 68.5288 16.3514V15.4962H68.2837V15.2796H68.5288V14.9883L68.8097 14.9046ZM69.6217 15.7688C69.6217 15.5838 69.6178 15.4259 69.6087 15.2796H69.8597L69.8727 15.5896H69.8825C69.9546 15.3802 70.1308 15.2468 70.3233 15.2468C70.3525 15.2468 70.3753 15.2506 70.4013 15.2532V15.5226C70.372 15.5149 70.3428 15.5149 70.3031 15.5149C70.1009 15.5149 69.9579 15.6638 69.9182 15.8777C69.9117 15.9177 69.9085 15.9647 69.9085 16.0105V16.8458H69.6217V15.7688ZM72.1672 16.0505C72.1672 16.6286 71.7595 16.8812 71.3805 16.8812C70.9559 16.8812 70.623 16.5706 70.623 16.0756C70.623 15.5542 70.9728 15.2474 71.4065 15.2474C71.8603 15.2474 72.1672 15.5742 72.1672 16.0505ZM70.9169 16.0659C70.9169 16.4088 71.1133 16.6685 71.3935 16.6685C71.6672 16.6685 71.8733 16.4133 71.8733 16.0608C71.8733 15.7959 71.7394 15.4614 71.4 15.4614C71.0645 15.4614 70.9169 15.7727 70.9169 16.0659ZM72.6074 15.7031C72.6074 15.5381 72.6041 15.4098 72.5944 15.2803H72.8493L72.8655 15.5381H72.872C72.9507 15.3924 73.1334 15.2474 73.3941 15.2474C73.6126 15.2474 73.952 15.377 73.952 15.9145V16.8458H73.6652V15.9435C73.6652 15.6902 73.5703 15.4801 73.2992 15.4801C73.1132 15.4801 72.9663 15.6128 72.9143 15.772C72.9013 15.8075 72.8948 15.8552 72.8948 15.9035V16.8458H72.608L72.6074 15.7031Z" fill="#1A1F71"/>
<path d="M122.438 19.5444C122.438 20.8192 121.397 21.8504 120.113 21.8504H88.0585C86.7731 21.8504 85.7322 20.8179 85.7322 19.5444V2.39764C85.7322 1.12347 86.7738 0.0922852 88.0585 0.0922852H120.113C121.397 0.0922852 122.438 1.12412 122.438 2.39764V19.5444Z" fill="white"/>
<path d="M96.4762 19.7856V18.601C96.4762 18.1454 96.1979 17.8495 95.7194 17.8495C95.4801 17.8495 95.2207 17.9288 95.0413 18.1853C94.9021 17.9681 94.7032 17.8495 94.4041 17.8495C94.2045 17.8495 94.0055 17.9088 93.8456 18.1267V17.8902H93.4275V19.7856H93.8456V18.7383C93.8456 18.4025 94.0257 18.2446 94.3046 18.2446C94.5835 18.2446 94.7233 18.4219 94.7233 18.7383V19.7856H95.142V18.7383C95.142 18.4025 95.3416 18.2446 95.6004 18.2446C95.88 18.2446 96.0191 18.4219 96.0191 18.7383V19.7856H96.4762ZM102.673 17.8895H101.996V17.3166H101.577V17.8895H101.198V18.264H101.577V19.134C101.577 19.5691 101.756 19.8243 102.234 19.8243C102.413 19.8243 102.613 19.765 102.752 19.6864L102.633 19.3306C102.513 19.4086 102.373 19.4286 102.274 19.4286C102.074 19.4286 101.995 19.3106 101.995 19.1128V18.264H102.672L102.673 17.8895ZM106.22 17.8495C105.981 17.8495 105.822 17.9688 105.723 18.1267V17.8902H105.303V19.7856H105.723V18.7196C105.723 18.4032 105.862 18.2246 106.12 18.2246C106.2 18.2246 106.3 18.2453 106.379 18.2652L106.499 17.8702C106.42 17.8495 106.3 17.8495 106.22 17.8495ZM100.86 18.0468C100.661 17.9082 100.382 17.8489 100.083 17.8489C99.6049 17.8489 99.2863 18.0854 99.2863 18.4599C99.2863 18.7763 99.5256 18.9542 99.9437 19.0129L100.143 19.0328C100.362 19.0728 100.481 19.1308 100.481 19.2294C100.481 19.3686 100.322 19.4672 100.043 19.4672C99.7642 19.4672 99.5444 19.3686 99.4053 19.2694L99.2063 19.5852C99.4248 19.7431 99.7245 19.8217 100.023 19.8217C100.581 19.8217 100.9 19.5665 100.9 19.2101C100.9 18.8743 100.641 18.6977 100.242 18.6371L100.043 18.6171C99.8643 18.5984 99.7245 18.5585 99.7245 18.4399C99.7245 18.3013 99.8643 18.2221 100.083 18.2221C100.322 18.2221 100.561 18.3207 100.68 18.3813L100.86 18.0468ZM111.979 17.8495C111.739 17.8495 111.58 17.9688 111.481 18.1267V17.8902H111.062V19.7856H111.481V18.7196C111.481 18.4032 111.62 18.2246 111.879 18.2246C111.958 18.2246 112.058 18.2453 112.137 18.2652L112.258 17.8702C112.178 17.8495 112.058 17.8495 111.979 17.8495ZM106.638 18.8369C106.638 19.4092 107.037 19.8236 107.655 19.8236C107.934 19.8236 108.133 19.7637 108.331 19.6071L108.133 19.2707C107.973 19.3905 107.814 19.4492 107.634 19.4492C107.295 19.4492 107.057 19.2114 107.057 18.8369C107.057 18.4805 107.296 18.2446 107.634 18.2246C107.814 18.2246 107.973 18.2839 108.133 18.4019L108.331 18.0667C108.133 17.9069 107.934 17.8476 107.655 17.8476C107.038 17.8495 106.638 18.264 106.638 18.8369ZM110.504 18.8369V17.8882H110.085V18.1247C109.946 17.9475 109.747 17.8476 109.488 17.8476C108.95 17.8476 108.532 18.262 108.532 18.8356C108.532 19.4073 108.949 19.8223 109.488 19.8223C109.767 19.8223 109.966 19.7237 110.085 19.5452V19.783H110.504V18.8369ZM108.97 18.8369C108.97 18.5005 109.19 18.2246 109.548 18.2246C109.886 18.2246 110.126 18.4805 110.126 18.8369C110.126 19.1727 109.886 19.4492 109.548 19.4492C109.19 19.4292 108.97 19.172 108.97 18.8369ZM103.969 17.8495C103.411 17.8495 103.013 18.2446 103.013 18.8369C103.013 19.4292 103.411 19.8243 103.989 19.8243C104.268 19.8243 104.547 19.7456 104.766 19.5678L104.566 19.2719C104.407 19.3905 104.208 19.4698 104.009 19.4698C103.749 19.4698 103.49 19.3512 103.43 19.0161H104.845V18.8588C104.865 18.2446 104.506 17.8495 103.969 17.8495ZM103.969 18.2053C104.228 18.2053 104.407 18.3626 104.447 18.6584H103.451C103.491 18.4025 103.67 18.2053 103.969 18.2053ZM114.349 18.8369V17.1387H113.932V18.1247C113.792 17.9482 113.592 17.8489 113.334 17.8489C112.795 17.8489 112.377 18.2633 112.377 18.8363C112.377 19.4086 112.795 19.823 113.334 19.823C113.612 19.823 113.811 19.7244 113.932 19.5465V19.7843H114.349V18.8369ZM112.815 18.8369C112.815 18.5005 113.034 18.2246 113.393 18.2246C113.732 18.2246 113.971 18.4805 113.971 18.8369C113.971 19.1727 113.731 19.4492 113.393 19.4492C113.034 19.4292 112.815 19.172 112.815 18.8369ZM98.8279 18.8369V17.8882H98.4092V18.1247C98.2701 17.9475 98.0705 17.8476 97.8123 17.8476C97.2746 17.8476 96.8559 18.262 96.8559 18.8356C96.8559 19.4073 97.2746 19.8223 97.8123 19.8223C98.0906 19.8223 98.2902 19.7237 98.4092 19.5452V19.783H98.8279V18.8369ZM97.274 18.8369C97.274 18.5005 97.4925 18.2246 97.8514 18.2246C98.1901 18.2246 98.4294 18.4805 98.4294 18.8369C98.4294 19.1727 98.1901 19.4492 97.8514 19.4492C97.4931 19.4292 97.274 19.172 97.274 18.8369Z" fill="#202020"/>
<path d="M106.998 3.49316H100.721V14.6719H106.998V3.49316Z" fill="#FF5F00"/>
<path d="M101.119 9.08026C101.119 6.80907 102.195 4.79438 103.85 3.49122C102.634 2.54317 101.1 1.97021 99.4257 1.97021C95.4608 1.97021 92.2528 5.15014 92.2528 9.08026C92.2528 13.0104 95.4608 16.1903 99.4257 16.1903C101.1 16.1903 102.634 15.6173 103.85 14.6699C102.195 13.3855 101.119 11.3514 101.119 9.08026Z" fill="#EB001B"/>
<path d="M115.465 9.07961C115.465 13.0097 112.257 16.1897 108.292 16.1897C106.618 16.1897 105.085 15.6167 103.869 14.6693C105.542 13.3668 106.599 11.3515 106.599 9.08026C106.599 6.80907 105.523 4.79438 103.869 3.49122C105.085 2.54317 106.618 1.97021 108.292 1.97021C112.258 1.96957 115.465 5.16883 115.465 9.07961Z" fill="#F79E1B"/>
<path d="M165.321 19.5444C165.321 20.8192 164.279 21.8504 162.995 21.8504H130.941C129.655 21.8504 128.614 20.8179 128.614 19.5444V2.39764C128.614 1.12347 129.656 0.0922852 130.941 0.0922852H162.995C164.279 0.0922852 165.321 1.12412 165.321 2.39764V19.5444Z" fill="white"/>
<path d="M150.051 15.0551H143.6V3.5625H150.051V15.0551Z" fill="#6C6BBD"/>
<path d="M144.01 9.31017C144.01 6.97904 145.111 4.90248 146.825 3.56387C145.572 2.58553 143.989 2.00098 142.269 2.00098C138.198 2.00098 134.897 5.27307 134.897 9.30952C134.897 13.3466 138.198 16.6181 142.269 16.6181C143.989 16.6181 145.572 16.0329 146.825 15.0558C145.111 13.7185 144.01 11.6407 144.01 9.31017Z" fill="#D32011"/>
<path d="M158.755 9.30999C158.755 13.3464 155.454 16.6179 151.383 16.6179C149.663 16.6179 148.08 16.0327 146.826 15.0556C148.541 13.7177 149.642 11.6398 149.642 9.3087C149.642 6.97757 148.543 4.90102 146.826 3.56241C148.08 2.58407 149.663 1.99951 151.383 1.99951C155.453 2.0008 158.755 5.27353 158.755 9.30999Z" fill="#0099DF"/>
<path d="M152.234 18.3016C152.32 18.3016 152.442 18.3184 152.537 18.3545L152.406 18.7521C152.315 18.7148 152.226 18.7038 152.139 18.7038C151.861 18.7038 151.721 18.883 151.721 19.202V20.2906H151.296V18.3493H151.717V18.5846C151.828 18.4157 151.988 18.3016 152.234 18.3016ZM150.659 18.7367H149.964V19.6125C149.964 19.8091 150.033 19.9387 150.247 19.9387C150.358 19.9387 150.497 19.9006 150.624 19.8278L150.746 20.1894C150.611 20.2835 150.398 20.3402 150.214 20.3402C149.71 20.3402 149.534 20.0714 149.534 19.6216V18.7367H149.137V18.3506H149.534V17.7622H149.964V18.3506H150.659V18.7367ZM145.209 19.1511C145.255 18.8694 145.427 18.68 145.729 18.68C146.003 18.68 146.181 18.8514 146.225 19.1511H145.209ZM146.667 19.3199C146.663 18.7154 146.286 18.3016 145.737 18.3016C145.165 18.3016 144.763 18.7167 144.763 19.3199C144.763 19.938 145.18 20.3395 145.765 20.3395C146.061 20.3395 146.33 20.2673 146.568 20.0676L146.36 19.755C146.196 19.8839 145.987 19.9573 145.791 19.9573C145.516 19.9573 145.266 19.8317 145.206 19.4836H146.659C146.663 19.4295 146.667 19.3786 146.667 19.3199ZM148.538 18.8462C148.419 18.7734 148.179 18.68 147.928 18.68C147.695 18.68 147.556 18.7657 147.556 18.9081C147.556 19.0364 147.704 19.0737 147.888 19.0989L148.088 19.1272C148.514 19.1878 148.772 19.367 148.772 19.7073C148.772 20.0759 148.445 20.3402 147.88 20.3402C147.56 20.3402 147.266 20.2583 147.031 20.0869L147.232 19.7582C147.376 19.8678 147.59 19.9606 147.884 19.9606C148.174 19.9606 148.33 19.8755 148.33 19.7266C148.33 19.6151 148.22 19.5545 147.986 19.523L147.785 19.4965C147.347 19.4347 147.108 19.24 147.108 18.9236C147.108 18.5369 147.429 18.301 147.923 18.301C148.235 18.301 148.518 18.3693 148.722 18.504L148.538 18.8462ZM153.791 18.7032C153.703 18.7032 153.622 18.7173 153.546 18.7483C153.471 18.7792 153.406 18.8218 153.351 18.8759C153.296 18.93 153.254 18.9971 153.222 19.0737C153.19 19.1517 153.175 19.2355 153.175 19.3283C153.175 19.4211 153.19 19.503 153.222 19.581C153.253 19.6583 153.296 19.7247 153.351 19.7795C153.406 19.8343 153.471 19.8768 153.546 19.9071C153.622 19.9387 153.703 19.9528 153.791 19.9528C153.879 19.9528 153.96 19.9387 154.034 19.9071C154.11 19.8768 154.176 19.8343 154.231 19.7795C154.287 19.7247 154.33 19.6583 154.363 19.581C154.393 19.5043 154.408 19.4211 154.408 19.3283C154.408 19.2355 154.393 19.153 154.363 19.0737C154.33 18.9977 154.287 18.93 154.231 18.8759C154.176 18.8218 154.11 18.7792 154.034 18.7483C153.96 18.7186 153.879 18.7032 153.791 18.7032ZM153.791 18.3016C153.943 18.3016 154.083 18.3274 154.213 18.3803C154.341 18.4325 154.454 18.5047 154.549 18.5962C154.644 18.6877 154.717 18.7973 154.77 18.9216C154.824 19.0447 154.85 19.1807 154.85 19.3283C154.85 19.4746 154.824 19.6106 154.77 19.735C154.717 19.8587 154.644 19.969 154.549 20.0598C154.454 20.152 154.343 20.2235 154.213 20.2764C154.083 20.3279 153.943 20.3544 153.791 20.3544C153.639 20.3544 153.499 20.3279 153.37 20.2764C153.241 20.2235 153.129 20.152 153.034 20.0598C152.941 19.969 152.867 19.8587 152.814 19.735C152.761 19.6106 152.734 19.4746 152.734 19.3283C152.734 19.1807 152.761 19.046 152.814 18.9216C152.868 18.7973 152.941 18.6877 153.034 18.5962C153.129 18.5047 153.24 18.4325 153.37 18.3803C153.499 18.3274 153.638 18.3016 153.791 18.3016ZM142.72 19.3199C142.72 18.9797 142.946 18.6999 143.314 18.6999C143.666 18.6999 143.903 18.9674 143.903 19.3199C143.903 19.6757 143.666 19.9425 143.314 19.9425C142.946 19.9425 142.72 19.6635 142.72 19.3199ZM144.305 19.3199V18.3506H143.88V18.5865C143.745 18.4119 143.541 18.3016 143.261 18.3016C142.712 18.3016 142.282 18.7277 142.282 19.3199C142.282 19.9135 142.712 20.3402 143.261 20.3402C143.54 20.3402 143.744 20.23 143.88 20.0572V20.2912H144.305V19.3199ZM141.906 20.2912V19.0731C141.906 18.6142 141.61 18.3074 141.135 18.3023C140.886 18.2984 140.628 18.3758 140.446 18.6484C140.312 18.4325 140.099 18.3023 139.8 18.3023C139.591 18.3023 139.386 18.3642 139.226 18.591V18.3513H138.801V20.2925H139.23V19.2155C139.23 18.8791 139.419 18.7006 139.708 18.7006C139.992 18.7006 140.135 18.8836 140.135 19.2117V20.2925H140.564V19.2155C140.564 18.8791 140.762 18.7006 141.042 18.7006C141.334 18.7006 141.473 18.8836 141.473 19.2117V20.2925H141.905V20.2912H141.906Z" fill="#110F0D"/>
<path d="M208.181 19.4553C208.181 20.7288 207.141 21.76 205.857 21.76H173.82C172.538 21.76 171.497 20.7269 171.497 19.4553V2.31822C171.497 1.04535 172.538 0.0141602 173.82 0.0141602H205.856C207.141 0.0141602 208.181 1.04535 208.181 2.31822V19.4553Z" fill="white"/>
<path d="M186.651 11.7036L185.097 15.8535L184.932 15.0098C184.544 13.9761 183.707 12.8901 182.732 12.4493L184.153 17.7811L185.833 17.7786L188.333 11.6997H186.651V11.7036Z" fill="#025EA3"/>
<path d="M187.983 17.789L188.977 11.6953H190.562L189.57 17.789H187.983Z" fill="#025EA3"/>
<path d="M195.328 11.846C195.013 11.7242 194.519 11.5908 193.905 11.5908C192.335 11.5908 191.232 12.4177 191.221 13.6003C191.211 14.4769 192.01 14.966 192.611 15.2567C193.232 15.5551 193.438 15.7459 193.438 16.012C193.429 16.4213 192.94 16.6069 192.484 16.6069C191.85 16.6069 191.513 16.5147 190.992 16.2879L190.787 16.1919L190.564 17.5562C190.936 17.7264 191.621 17.872 192.336 17.8798C194.002 17.8798 195.085 17.0619 195.098 15.7987C195.106 15.1033 194.68 14.5768 193.764 14.1437C193.209 13.8614 192.868 13.6738 192.874 13.3864C192.875 13.1324 193.16 12.8624 193.782 12.8624C194.303 12.8547 194.676 12.9733 194.971 13.0976L195.113 13.1673L195.328 11.846Z" fill="#025EA3"/>
<path d="M199.396 11.7026H198.171C197.791 11.7026 197.505 11.8083 197.338 12.2073L194.982 17.7899H196.649C196.649 17.7899 196.921 17.0371 196.983 16.8734C197.165 16.8734 198.785 16.8773 199.015 16.8773C199.063 17.09 199.208 17.7899 199.208 17.7899H200.683L199.396 11.7026ZM197.439 15.627C197.572 15.277 198.072 13.9229 198.072 13.9229C198.061 13.9397 198.201 13.5697 198.284 13.3435L198.389 13.8681C198.389 13.8681 198.694 15.3221 198.757 15.627C198.509 15.627 197.749 15.627 197.439 15.627Z" fill="#025EA3"/>
<path d="M183.657 11.6982H181.098L181.083 11.8026C183.074 12.3073 184.386 13.5447 184.933 15.0116L184.378 12.2132C184.28 11.8265 184.003 11.7124 183.657 11.6982Z" fill="#F1A535"/>
<path d="M176.296 10.2264H175.284L174.117 5.00919L175.236 4.82422L176.035 8.90708L178.069 4.87836H179.143L176.296 10.2264Z" fill="#025EA3"/>
<path d="M181.559 8.52173H179.146C179.079 9.24678 179.421 9.56323 179.996 9.56323C180.479 9.56323 180.905 9.38535 181.362 9.09984L181.358 9.82489C180.911 10.1033 180.392 10.2805 179.785 10.2805C178.735 10.2805 178.039 9.68697 178.249 8.34385C178.437 7.1322 179.282 6.39941 180.263 6.39941C181.392 6.39941 181.767 7.24112 181.604 8.29809C181.591 8.37478 181.568 8.46695 181.559 8.52173ZM180.139 7.04004C179.765 7.04004 179.417 7.33328 179.252 7.94233H180.748C180.773 7.36422 180.59 7.04004 180.139 7.04004Z" fill="#025EA3"/>
<path d="M183.132 8.06543L182.801 10.2032H181.866L182.445 6.47611H183.239L183.24 7.22436C183.556 6.79255 183.985 6.42971 184.575 6.39941L184.581 7.31782C183.99 7.35584 183.46 7.66455 183.132 8.06543Z" fill="#025EA3"/>
<path d="M184.568 10.2026L185.146 6.4755H186.081L185.502 10.2026H184.568ZM185.72 5.85099C185.408 5.85099 185.191 5.63509 185.24 5.32637C185.289 5.01057 185.573 4.78564 185.885 4.78564C186.188 4.78564 186.402 5.01057 186.354 5.32637C186.304 5.63509 186.021 5.85099 185.72 5.85099Z" fill="#025EA3"/>
<path d="M188.667 5.45716C188.349 5.45716 188.156 5.59573 188.105 5.92829L188.019 6.4761H188.735V7.23209H187.903L187.441 10.2032H186.514L186.976 7.23209H186.431L186.548 6.4761H187.094L187.193 5.83548C187.32 5.00988 187.899 4.70117 188.669 4.70117C188.833 4.70117 188.954 4.71664 189.046 4.73211L189.053 5.4881C188.962 5.47327 188.824 5.45716 188.667 5.45716Z" fill="#025EA3"/>
<path d="M188.678 10.2026L189.257 6.4755H190.192L189.613 10.2026H188.678ZM189.828 5.85099C189.517 5.85099 189.3 5.63509 189.351 5.32637C189.399 5.01057 189.684 4.78564 189.995 4.78564C190.299 4.78564 190.513 5.01057 190.465 5.32637C190.417 5.63509 190.134 5.85099 189.828 5.85099Z" fill="#025EA3"/>
<path d="M193.813 8.52173H191.401C191.334 9.24678 191.675 9.56323 192.251 9.56323C192.734 9.56323 193.159 9.38535 193.617 9.09984L193.613 9.82489C193.165 10.1033 192.647 10.2805 192.038 10.2805C190.988 10.2805 190.293 9.68697 190.503 8.34385C190.691 7.1322 191.537 6.39941 192.518 6.39941C193.646 6.39941 194.022 7.24112 193.859 8.29809C193.845 8.37478 193.823 8.46695 193.813 8.52173ZM192.392 7.04004C192.019 7.04004 191.67 7.33328 191.506 7.94233H193.002C193.027 7.36422 192.846 7.04004 192.392 7.04004Z" fill="#025EA3"/>
<path d="M196.58 10.204L196.584 9.68708C196.271 10.0035 195.862 10.2813 195.338 10.2813C194.552 10.2813 194.011 9.70319 194.207 8.4445C194.423 7.05562 195.29 6.43819 196.161 6.43819C196.52 6.43819 196.798 6.49942 197.012 6.57676L197.292 4.77862L198.25 4.63232L197.385 10.2046L196.58 10.204ZM196.893 7.34113C196.677 7.2335 196.507 7.17872 196.187 7.17872C195.696 7.17872 195.278 7.5725 195.15 8.39036C195.036 9.11542 195.295 9.45506 195.706 9.45506C196.05 9.45506 196.345 9.25398 196.642 8.94656L196.893 7.34113Z" fill="#025EA3"/>
<path d="M200.245 10.24C199.803 10.24 199.442 10.1697 199.106 10.0524L199.72 6.09523L200.444 5.98438L200.18 7.69679C200.391 7.50989 200.684 7.32299 201.045 7.32299C201.646 7.32299 202.049 7.7664 201.903 8.71509C201.741 9.75337 201.095 10.24 200.245 10.24ZM200.767 7.9417C200.531 7.9417 200.293 8.09895 200.085 8.3097L199.884 9.58967C200.024 9.64251 200.12 9.66572 200.321 9.66572C200.769 9.66572 201.082 9.39632 201.182 8.75376C201.267 8.21045 201.085 7.9417 200.767 7.9417Z" fill="#025EA3"/>
<path d="M203.57 10.3546C203.209 11.0507 202.851 11.2659 202.303 11.2659C202.178 11.2659 202.11 11.255 202.046 11.2376L202.043 10.6588C202.134 10.682 202.23 10.6994 202.366 10.6994C202.571 10.6994 202.753 10.606 202.871 10.4023L202.965 10.2148L202.366 7.43247L203.117 7.33838L203.465 9.3492L204.407 7.37963H205.109L203.57 10.3546Z" fill="#025EA3"/>
<path d="M251 19.5515C251 20.8231 249.96 21.8537 248.679 21.8537H216.68C215.397 21.8537 214.357 20.8218 214.357 19.5515V2.43381C214.357 1.16222 215.398 0.132324 216.68 0.132324H248.679C249.962 0.132324 251 1.16222 251 2.43381V19.5515Z" fill="white"/>
<path d="M247.298 9.61547C247.298 9.27582 247.568 8.99805 247.893 8.99805C248.228 8.99805 248.489 9.27518 248.489 9.61547C248.489 9.95576 248.228 10.2329 247.893 10.2329C247.568 10.2419 247.298 9.9635 247.298 9.61547ZM247.895 10.0982C248.148 10.0982 248.345 9.88358 248.345 9.62449C248.345 9.36541 248.137 9.15015 247.895 9.15015C247.642 9.15015 247.443 9.36476 247.443 9.62449C247.442 9.88422 247.642 10.0982 247.895 10.0982ZM247.812 9.89325H247.688V9.34672H247.913C247.958 9.34672 248.013 9.34672 248.049 9.37379C248.092 9.40085 248.111 9.45435 248.111 9.50784C248.111 9.571 248.075 9.62385 248.022 9.6419L248.12 9.88358H247.985L247.904 9.66896H247.812V9.89325ZM247.812 9.58905H247.884C247.912 9.58905 247.939 9.58905 247.955 9.57938C247.973 9.571 247.983 9.54393 247.983 9.51686C247.983 9.49882 247.973 9.47239 247.955 9.46337C247.939 9.45435 247.902 9.45435 247.884 9.45435H247.821L247.812 9.58905Z" fill="#FD0C15"/>
<path d="M238.771 5.49094L238.608 6.54662C238.256 6.35843 237.996 6.28753 237.715 6.28753C236.975 6.28753 236.452 7.03837 236.452 8.10307C236.452 8.8365 236.805 9.28314 237.383 9.28314C237.627 9.28314 237.896 9.20322 238.232 9.03307L238.059 10.1422C237.689 10.2499 237.454 10.2853 237.176 10.2853C236.102 10.2853 235.434 9.48035 235.434 8.19201C235.434 6.45704 236.353 5.24023 237.68 5.24023C237.851 5.24023 238.005 5.25828 238.131 5.29373L238.548 5.40071C238.654 5.44647 238.682 5.45485 238.771 5.49094Z" fill="#FD0C15"/>
<path d="M235.46 6.21459C235.433 6.20557 235.395 6.20557 235.36 6.20557C235.036 6.20557 234.846 6.37571 234.539 6.85006L234.629 6.25068H233.726L233.114 10.1956H234.115C234.476 7.78071 234.566 7.36888 235.045 7.36888C235.073 7.36888 235.081 7.36888 235.117 7.36888C235.207 6.89453 235.324 6.54586 235.495 6.22361L235.46 6.21459Z" fill="#FD0C15"/>
<path d="M229.495 10.1415C229.223 10.2317 229.007 10.2762 228.781 10.2762C228.276 10.2762 227.996 9.97199 227.996 9.40806C227.996 9.30107 228.006 9.17604 228.024 9.05101L228.088 8.66625L228.132 8.35302L228.565 5.66162H229.557L229.439 6.24295H229.954L229.81 7.19938H229.305L229.042 8.84542C229.033 8.9176 229.026 8.97045 229.026 9.00654C229.026 9.21278 229.133 9.30172 229.367 9.30172C229.486 9.30172 229.567 9.29205 229.638 9.26627L229.495 10.1415Z" fill="#FD0C15"/>
<path d="M225.561 7.49541C225.561 7.99618 225.795 8.33583 226.318 8.59556C226.716 8.79213 226.79 8.85464 226.79 9.03381C226.79 9.2755 226.608 9.39215 226.221 9.39215C225.922 9.39215 225.652 9.34704 225.327 9.23103L225.192 10.143L225.236 10.152L225.416 10.1875C225.48 10.1971 225.561 10.2145 225.678 10.2235C225.913 10.2409 226.102 10.2596 226.227 10.2596C227.274 10.2596 227.762 9.83943 227.762 8.94423C227.762 8.40737 227.563 8.08512 227.058 7.84408C226.643 7.64687 226.597 7.6024 226.597 7.4142C226.597 7.19959 226.76 7.0926 227.086 7.0926C227.284 7.0926 227.546 7.11967 227.799 7.15512L227.942 6.24316C227.682 6.19804 227.295 6.1626 227.067 6.1626C225.94 6.1626 225.552 6.76133 225.561 7.49541Z" fill="#FD0C15"/>
<path d="M246.72 10.1858H245.774L245.818 9.80172C245.548 10.1059 245.26 10.24 244.898 10.24C244.168 10.24 243.689 9.58775 243.689 8.60297C243.689 7.2882 244.428 6.17903 245.313 6.17903C245.702 6.17903 245.99 6.34982 246.271 6.71589L246.487 5.32959H247.471L246.72 10.1858ZM245.249 9.26486C245.72 9.26486 246.043 8.71898 246.043 7.93205C246.043 7.43128 245.854 7.1535 245.511 7.1535C245.061 7.1535 244.737 7.70841 244.737 8.47665C244.736 8.99611 244.907 9.26486 245.249 9.26486Z" fill="#FD0C15"/>
<path d="M232.652 10.1075C232.311 10.2145 231.986 10.2687 231.625 10.2687C230.515 10.2687 229.929 9.6596 229.929 8.49694C229.929 7.1377 230.668 6.14453 231.67 6.14453C232.493 6.14453 233.015 6.70846 233.015 7.58433C233.015 7.87113 232.978 8.15729 232.888 8.5601H230.903C230.894 8.62261 230.894 8.64904 230.894 8.68513C230.894 9.15045 231.192 9.38312 231.769 9.38312C232.122 9.38312 232.446 9.30255 232.808 9.13305L232.652 10.1075ZM232.094 7.75512C232.104 7.67456 232.104 7.60367 232.104 7.55855C232.104 7.23631 231.931 7.04876 231.634 7.04876C231.318 7.04876 231.092 7.29882 231.003 7.75512H232.094Z" fill="#FD0C15"/>
<path d="M221.555 10.1861H220.562L221.13 6.45642L219.848 10.1861H219.172L219.091 6.48349L218.487 10.1861H217.557L218.333 5.33887H219.768L219.803 8.34414L220.779 5.33887H222.331L221.555 10.1861Z" fill="#FD0C15"/>
<path d="M224.126 8.43418C224.017 8.42451 223.973 8.41613 223.901 8.41613C223.332 8.41613 223.05 8.62108 223.05 9.01487C223.05 9.25655 223.198 9.41768 223.414 9.41768C223.811 9.41768 224.108 9.01487 224.126 8.43418ZM224.847 10.1866H224.017L224.035 9.77537C223.783 10.106 223.449 10.2491 222.99 10.2491C222.449 10.2491 222.078 9.81017 222.078 9.17535C222.078 8.20925 222.728 7.65499 223.829 7.65499C223.946 7.65499 224.089 7.66337 224.236 7.68206C224.262 7.548 224.271 7.49451 224.271 7.42362C224.271 7.16388 224.1 7.06528 223.632 7.06528C223.351 7.06528 223.027 7.11039 222.803 7.18193L222.676 7.22705L222.585 7.25347L222.721 6.36794C223.218 6.21519 223.552 6.15332 223.912 6.15332C224.769 6.15332 225.221 6.55613 225.221 7.30696C225.221 7.50353 225.203 7.64661 225.139 8.09389L224.941 9.49759L224.903 9.74766L224.877 9.94423L224.858 10.0873L224.847 10.1866Z" fill="#FD0C15"/>
<path d="M240.493 8.43377C240.395 8.4241 240.341 8.41572 240.269 8.41572C239.701 8.41572 239.412 8.62067 239.412 9.01446C239.412 9.25614 239.557 9.41727 239.774 9.41727C240.179 9.41727 240.476 9.01446 240.493 8.43377ZM241.217 10.1861H240.386L240.404 9.77496C240.151 10.1056 239.819 10.2487 239.359 10.2487C238.815 10.2487 238.446 9.80976 238.446 9.17494C238.446 8.20884 239.096 7.65458 240.197 7.65458C240.306 7.65458 240.46 7.66296 240.605 7.68165C240.631 7.54759 240.639 7.4941 240.639 7.4232C240.639 7.16347 240.467 7.06487 239.999 7.06487C239.718 7.06487 239.395 7.10998 239.17 7.18152L239.025 7.21761L238.935 7.24468L239.07 6.35915C239.566 6.20705 239.9 6.14453 240.261 6.14453C241.118 6.14453 241.57 6.54734 241.57 7.29817C241.57 7.49474 241.551 7.63782 241.488 8.0851L241.281 9.48043L241.253 9.73049L241.226 9.9277L241.207 10.0618L241.217 10.1861Z" fill="#FD0C15"/>
<path d="M244.005 6.21459C243.979 6.20557 243.942 6.20557 243.905 6.20557C243.581 6.20557 243.392 6.37571 243.085 6.85006L243.175 6.25068H242.273L241.66 10.1956H242.662C243.02 7.78071 243.113 7.36888 243.59 7.36888C243.618 7.36888 243.618 7.36888 243.663 7.36888C243.752 6.89453 243.878 6.54586 244.041 6.22361L244.005 6.21459Z" fill="#FD0C15"/>
<path d="M239.817 14.0229C239.817 14.9181 239.537 15.4453 239.095 15.4453C238.77 15.4544 238.581 15.0967 238.581 14.5701C238.581 13.9443 238.869 13.2296 239.323 13.2296C239.692 13.227 239.817 13.6105 239.817 14.0229ZM240.8 14.0326C240.8 13.0394 240.305 12.2603 239.375 12.2603C238.302 12.2603 237.608 13.1986 237.608 14.5862C237.608 15.5781 238.023 16.3934 239.031 16.3934C240.053 16.3934 240.8 15.6767 240.8 14.0326Z" fill="#F3AE12"/>
<path d="M237.923 11.572L237.771 12.6277C237.434 12.4408 237.202 12.3686 236.941 12.3686C236.246 12.3686 235.759 13.1214 235.759 14.1841C235.759 14.9182 236.084 15.3642 236.625 15.3642C236.859 15.3642 237.111 15.2843 237.42 15.1135L237.257 16.2233C236.915 16.3303 236.688 16.3677 236.426 16.3677C235.425 16.3677 234.792 15.5614 234.792 14.2744C234.792 12.5387 235.66 11.3213 236.895 11.3213C237.056 11.3213 237.192 11.3387 237.312 11.3754L237.689 11.4831C237.814 11.5198 237.84 11.5275 237.923 11.572Z" fill="#F3AE12"/>
<path d="M231.76 12.2901C231.733 12.2778 231.696 12.2778 231.662 12.2778C231.353 12.2778 231.182 12.4499 230.892 12.923L230.983 12.3223H230.145L229.576 16.2672H230.507C230.841 13.853 230.931 13.4399 231.372 13.4399C231.399 13.4399 231.399 13.4399 231.444 13.4489C231.526 12.9758 231.643 12.6278 231.797 12.3062L231.76 12.2901Z" fill="#F3AE12"/>
<path d="M243.923 16.2307H243.039L243.085 15.8466C242.832 16.1501 242.561 16.2842 242.219 16.2842C241.542 16.2842 241.09 15.632 241.09 14.6465C241.09 13.333 241.786 12.2226 242.607 12.2226C242.968 12.2226 243.247 12.3927 243.5 12.7691L243.707 11.3828H244.627L243.923 16.2307ZM242.544 15.3013C242.986 15.3013 243.283 14.7542 243.283 13.9679C243.283 13.4677 243.113 13.1983 242.786 13.1983C242.364 13.1983 242.065 13.7462 242.065 14.5241C242.064 15.0422 242.226 15.3013 242.544 15.3013Z" fill="#F3AE12"/>
<path d="M223.025 16.2161C222.71 16.3244 222.402 16.3772 222.068 16.3772C221.031 16.3772 220.488 15.7695 220.488 14.6061C220.488 13.2546 221.183 12.2544 222.112 12.2544C222.88 12.2544 223.367 12.8087 223.367 13.6948C223.367 13.9816 223.33 14.2665 223.25 14.67H221.4C221.391 14.7325 221.391 14.7589 221.391 14.7937C221.391 15.2506 221.67 15.482 222.211 15.482C222.545 15.482 222.844 15.4021 223.177 15.232L223.025 16.2161ZM222.502 13.8643C222.502 13.7831 222.512 13.7116 222.512 13.6665C222.512 13.3442 222.348 13.1567 222.069 13.1567C221.772 13.1567 221.564 13.408 221.473 13.8643H222.502Z" fill="#F3AE12"/>
<path d="M234.106 16.2161C233.791 16.3244 233.484 16.3772 233.148 16.3772C232.102 16.3772 231.561 15.7695 231.561 14.6061C231.561 13.2546 232.256 12.2544 233.185 12.2544C233.953 12.2544 234.449 12.8087 234.449 13.6948C234.449 13.9816 234.413 14.2665 234.33 14.67H232.48C232.471 14.7325 232.471 14.7589 232.471 14.7937C232.471 15.2506 232.752 15.482 233.293 15.482C233.627 15.482 233.925 15.4021 234.257 15.232L234.106 16.2161ZM233.583 13.8643C233.592 13.7831 233.592 13.7116 233.592 13.6665C233.592 13.3442 233.43 13.1567 233.15 13.1567C232.852 13.1567 232.645 13.408 232.555 13.8643H233.583Z" fill="#F3AE12"/>
<path d="M247.1 16.2161C246.776 16.3244 246.469 16.3772 246.142 16.3772C245.104 16.3772 244.555 15.7695 244.555 14.6061C244.555 13.2546 245.249 12.2544 246.188 12.2544C246.956 12.2544 247.443 12.8087 247.443 13.6948C247.443 13.9816 247.406 14.2665 247.325 14.67H245.476C245.467 14.7325 245.467 14.7589 245.467 14.7937C245.467 15.2506 245.746 15.482 246.288 15.482C246.623 15.482 246.918 15.4021 247.253 15.232L247.1 16.2161ZM246.576 13.8643C246.576 13.7831 246.586 13.7116 246.586 13.6665C246.586 13.3442 246.423 13.1567 246.143 13.1567C245.844 13.1567 245.638 13.408 245.548 13.8643H246.576Z" fill="#F3AE12"/>
<path d="M220.263 12.4657C220.084 12.3413 219.831 12.2427 219.488 12.2427C219.11 12.2427 218.813 12.3233 218.813 12.7158C218.813 13.4131 220.184 13.154 220.184 14.657C220.184 16.0252 219.28 16.3842 218.46 16.3842C218.099 16.3842 217.676 16.2669 217.367 16.1251L217.594 15.1223C217.784 15.2924 218.153 15.4072 218.47 15.4072C218.767 15.4072 219.219 15.3266 219.219 14.8181C219.219 14.0215 217.847 14.3173 217.847 12.9226C217.847 11.644 218.649 11.2676 219.427 11.2676C219.86 11.2676 220.275 11.3307 220.51 11.4919L220.263 12.4657Z" fill="#F3AE12"/>
<path d="M225.751 16.2145C225.561 16.3041 225.3 16.3672 224.922 16.3672C224.109 16.3672 223.604 15.561 223.604 14.5781C223.604 13.2891 224.334 12.2695 225.408 12.2695C225.643 12.2695 226.004 12.3675 226.283 12.5299L226.076 13.4683C225.877 13.3336 225.67 13.253 225.454 13.253C224.957 13.253 224.596 13.7087 224.596 14.5143C224.596 14.9809 224.859 15.3637 225.265 15.3637C225.508 15.3637 225.68 15.3096 225.886 15.193L225.751 16.2145Z" fill="#F3AE12"/>
<path d="M229.233 15.2218C229.189 15.5601 229.144 15.8927 229.116 16.2401H228.222L228.294 15.6072H228.284C228.004 16.0358 227.715 16.3303 227.201 16.3303C226.642 16.3303 226.336 15.7406 226.336 14.9801C226.336 14.712 226.352 14.5683 226.407 14.1577L226.66 12.3325H227.662L227.391 14.1674C227.365 14.364 227.327 14.558 227.327 14.7655C227.327 14.9981 227.435 15.2321 227.706 15.2128C228.112 15.2128 228.355 14.7197 228.428 14.139L228.709 12.3325H229.674L229.233 15.2218Z" fill="#F3AE12"/>
<path d="M248.029 16.1959H247.874V15.543H247.66V15.3999H248.245V15.543H248.029V16.1959Z" fill="#F3AE12"/>
<path d="M249.029 16.1959H248.886V15.534L248.75 16.1959H248.605L248.471 15.534V16.1959H248.326V15.3999H248.552L248.677 16.0263H248.686L248.812 15.3999H249.029V16.1959Z" fill="#F3AE12"/>
</svg>
